<svg xmlns="http://www.w3.org/2000/svg" width="900" height="470" viewBox="0 0 900 470" font-family="'Chalkboard SE','Comic Sans MS','Segoe Print',sans-serif">
<rect width="900" height="470" rx="18" fill="#fbfaf7"/>
<text x="450.0" y="44" text-anchor="middle" font-size="28" font-weight="bold" fill="#1f2933">Relational memory</text>
<text x="450.0" y="70" text-anchor="middle" font-size="15" fill="#6b7480">capabilities, with the lessons that hang off them</text><line x1="230" y1="200" x2="520" y2="170" stroke="#cdd3e0" stroke-width="2"  stroke-linecap="round"/><line x1="520" y1="170" x2="660" y2="300" stroke="#cdd3e0" stroke-width="2"  stroke-linecap="round"/><line x1="230" y1="200" x2="660" y2="300" stroke="#cdd3e0" stroke-width="2"  stroke-linecap="round"/><line x1="230" y1="200" x2="289.42416427349684" y2="233.87854840370213" stroke="#cdd3e0" stroke-width="1.6"  stroke-linecap="round"/><rect x="263.42416427349684" y="221.87854840370213" width="52" height="24" rx="6" fill="#fff7d6" stroke="#e0b341" stroke-width="1.8" /><text x="289.42416427349684" y="237.87854840370213" text-anchor="middle" font-size="10" font-weight="normal" fill="#7a6a2a" font-style="">lesson</text><line x1="230" y1="200" x2="189.34574191555745" y2="249.5201368945807" stroke="#cdd3e0" stroke-width="1.6"  stroke-linecap="round"/><rect x="163.34574191555745" y="237.5201368945807" width="52" height="24" rx="6" fill="#fff7d6" stroke="#e0b341" stroke-width="1.8" /><text x="189.34574191555745" y="253.5201368945807" text-anchor="middle" font-size="10" font-weight="normal" fill="#7a6a2a" font-style="">lesson</text><line x1="230" y1="200" x2="170.57583572650316" y2="166.12145159629787" stroke="#cdd3e0" stroke-width="1.6"  stroke-linecap="round"/><rect x="144.57583572650316" y="154.12145159629787" width="52" height="24" rx="6" fill="#fff7d6" stroke="#e0b341" stroke-width="1.8" /><text x="170.57583572650316" y="170.12145159629787" text-anchor="middle" font-size="10" font-weight="normal" fill="#7a6a2a" font-style="">lesson</text><line x1="230" y1="200" x2="270.6542580844425" y2="150.47986310541927" stroke="#cdd3e0" stroke-width="1.6"  stroke-linecap="round"/><rect x="244.65425808444252" y="138.47986310541927" width="52" height="24" rx="6" fill="#fff7d6" stroke="#e0b341" stroke-width="1.8" /><text x="270.6542580844425" y="154.47986310541927" text-anchor="middle" font-size="10" font-weight="normal" fill="#7a6a2a" font-style="">lesson</text><circle cx="230" cy="200" r="40" fill="#e7e9f5" stroke="#3b3b6d" stroke-width="3"/><text x="230" y="205" text-anchor="middle" font-size="13" font-weight="bold" fill="#3b3b6d" font-style="">🕷 crawl</text><line x1="520" y1="170" x2="579.4241642734969" y2="203.87854840370213" stroke="#cdd3e0" stroke-width="1.6"  stroke-linecap="round"/><rect x="553.4241642734969" y="191.87854840370213" width="52" height="24" rx="6" fill="#fff7d6" stroke="#e0b341" stroke-width="1.8" /><text x="579.4241642734969" y="207.87854840370213" text-anchor="middle" font-size="10" font-weight="normal" fill="#7a6a2a" font-style="">lesson</text><line x1="520" y1="170" x2="479.3457419155575" y2="219.5201368945807" stroke="#cdd3e0" stroke-width="1.6"  stroke-linecap="round"/><rect x="453.3457419155575" y="207.5201368945807" width="52" height="24" rx="6" fill="#fff7d6" stroke="#e0b341" stroke-width="1.8" /><text x="479.3457419155575" y="223.5201368945807" text-anchor="middle" font-size="10" font-weight="normal" fill="#7a6a2a" font-style="">lesson</text><line x1="520" y1="170" x2="460.57583572650316" y2="136.12145159629787" stroke="#cdd3e0" stroke-width="1.6"  stroke-linecap="round"/><rect x="434.57583572650316" y="124.12145159629787" width="52" height="24" rx="6" fill="#fff7d6" stroke="#e0b341" stroke-width="1.8" /><text x="460.57583572650316" y="140.12145159629787" text-anchor="middle" font-size="10" font-weight="normal" fill="#7a6a2a" font-style="">lesson</text><line x1="520" y1="170" x2="560.6542580844425" y2="120.47986310541928" stroke="#cdd3e0" stroke-width="1.6"  stroke-linecap="round"/><rect x="534.6542580844425" y="108.47986310541928" width="52" height="24" rx="6" fill="#fff7d6" stroke="#e0b341" stroke-width="1.8" /><text x="560.6542580844425" y="124.47986310541928" text-anchor="middle" font-size="10" font-weight="normal" fill="#7a6a2a" font-style="">lesson</text><circle cx="520" cy="170" r="40" fill="#e7e9f5" stroke="#3b3b6d" stroke-width="3"/><text x="520" y="175" text-anchor="middle" font-size="13" font-weight="bold" fill="#3b3b6d" font-style="">🔍 analyse</text><line x1="660" y1="300" x2="719.4241642734969" y2="333.8785484037021" stroke="#cdd3e0" stroke-width="1.6"  stroke-linecap="round"/><rect x="693.4241642734969" y="321.8785484037021" width="52" height="24" rx="6" fill="#fff7d6" stroke="#e0b341" stroke-width="1.8" /><text x="719.4241642734969" y="337.8785484037021" text-anchor="middle" font-size="10" font-weight="normal" fill="#7a6a2a" font-style="">lesson</text><line x1="660" y1="300" x2="619.3457419155575" y2="349.5201368945807" stroke="#cdd3e0" stroke-width="1.6"  stroke-linecap="round"/><rect x="593.3457419155575" y="337.5201368945807" width="52" height="24" rx="6" fill="#fff7d6" stroke="#e0b341" stroke-width="1.8" /><text x="619.3457419155575" y="353.5201368945807" text-anchor="middle" font-size="10" font-weight="normal" fill="#7a6a2a" font-style="">lesson</text><line x1="660" y1="300" x2="600.5758357265031" y2="266.1214515962979" stroke="#cdd3e0" stroke-width="1.6"  stroke-linecap="round"/><rect x="574.5758357265031" y="254.1214515962979" width="52" height="24" rx="6" fill="#fff7d6" stroke="#e0b341" stroke-width="1.8" /><text x="600.5758357265031" y="270.1214515962979" text-anchor="middle" font-size="10" font-weight="normal" fill="#7a6a2a" font-style="">lesson</text><line x1="660" y1="300" x2="700.6542580844425" y2="250.47986310541927" stroke="#cdd3e0" stroke-width="1.6"  stroke-linecap="round"/><rect x="674.6542580844425" y="238.47986310541927" width="52" height="24" rx="6" fill="#fff7d6" stroke="#e0b341" stroke-width="1.8" /><text x="700.6542580844425" y="254.47986310541927" text-anchor="middle" font-size="10" font-weight="normal" fill="#7a6a2a" font-style="">lesson</text><circle cx="660" cy="300" r="40" fill="#e7e9f5" stroke="#3b3b6d" stroke-width="3"/><text x="660" y="305" text-anchor="middle" font-size="13" font-weight="bold" fill="#3b3b6d" font-style="">✏ write</text><circle cx="180" cy="400" r="16" fill="#f1ede4" stroke="#1f2933" stroke-width="2"/><circle cx="180" cy="391" r="9" fill="#1f2933" stroke="#1f2933" stroke-width="0"/><path d="M192,394 q60,-90 50,-180" fill="none" stroke="#2f9e6b" stroke-width="2.6" stroke-dasharray="2 5"/><text x="300" y="432" text-anchor="middle" font-size="13" font-weight="normal" fill="#3f6b55" font-style="italic">recall: what do I know about this capability?</text></svg>
